<svg viewBox="0 0 64 64" xmlns="http://www.w3.org/2000/svg" role="img" aria-label="Front of House">
  <rect width="64" height="64" rx="14" fill="#FBF7F0"/>
  <!-- ember rail -->
  <rect x="9.5" y="12" width="45" height="4" rx="1.5" fill="#C75B39"/>
  <!-- 5 bays, ember at both ends, bone hairlines -->
  <path d="M11,16 H20 V29 A4.5,4.5 0 0 1 11,29 Z" fill="#C75B39" stroke="#FBF7F0" stroke-width="0.8"/>
  <path d="M20,16 H29 V29 A4.5,4.5 0 0 1 20,29 Z" fill="#221C18" stroke="#FBF7F0" stroke-width="0.8"/>
  <path d="M29,16 H38 V29 A4.5,4.5 0 0 1 29,29 Z" fill="#C75B39" stroke="#FBF7F0" stroke-width="0.8"/>
  <path d="M38,16 H47 V29 A4.5,4.5 0 0 1 38,29 Z" fill="#221C18" stroke="#FBF7F0" stroke-width="0.8"/>
  <path d="M47,16 H56 V29 A4.5,4.5 0 0 1 47,29 Z" fill="#C75B39" stroke="#FBF7F0" stroke-width="0.8"/>
  <text x="32" y="52" text-anchor="middle" font-family="Georgia, 'Times New Roman', serif" font-size="19" font-weight="700" fill="#221C18" letter-spacing="0.5">FOH</text>
</svg>
